<svg width="99" height="18" viewBox="0 0 99 18" fill="none" xmlns="http://www.w3.org/2000/svg">
<path fill-rule="evenodd" clip-rule="evenodd" d="M6.51263 9.2816V7.20316L0.766985 9.33873H0.756104V11.4716H0.766985L6.51263 13.6072V11.526L3.56635 10.3997L6.51263 9.27888V9.2816Z" fill="#F7DD43"/>
<path fill-rule="evenodd" clip-rule="evenodd" d="M39.7922 13.5037V11.4253L42.7358 10.3072L39.7922 9.18905V7.1106L45.5297 9.24618H45.5433V11.3817H45.5297L39.7922 13.5064V13.5037ZM37.3275 4.16977L33.9541 15H35.9564L39.3298 4.16977H37.3275Z" fill="#F7DD43"/>
<path fill-rule="evenodd" clip-rule="evenodd" d="M14.9543 6.91747C15.5256 7.54317 15.8249 8.3702 15.7895 9.21627V13.8302H13.7872V9.64066C13.8117 9.17274 13.6621 8.7157 13.3683 8.35116C13.0908 8.02742 12.68 7.84787 12.2529 7.86691C10.9987 7.86691 10.3703 8.73746 10.3703 10.4758V13.8302H8.36804V6.25639H10.3703V6.93923C11.0069 6.32168 11.8693 5.99251 12.7562 6.03059C13.5832 5.99523 14.383 6.31896 14.9543 6.91747Z" fill="#F7DD43"/>
<path fill-rule="evenodd" clip-rule="evenodd" d="M18.3413 3V13.8302H20.3436V3H18.3413Z" fill="#F7DD43"/>
<path fill-rule="evenodd" clip-rule="evenodd" d="M31.6661 13.8302H29.9958L28.358 9.36862L26.704 13.8302H25.0336L22.2261 6.2428H24.3671L25.945 10.7806L27.5718 6.2428H29.1361L30.7629 10.7942L32.3408 6.2428H34.4818L31.6716 13.8302H31.6661Z" fill="#F7DD43"/>
<path d="M55.0796 17.9981C53.1533 17.9981 51.1295 17.6331 49.5433 16.754V1.24411C51.1046 0.389878 53.1284 2.85548e-05 55.0796 2.85548e-05C57.0307 2.85548e-05 59.0067 0.365035 60.5661 1.24411V7.19505H56.639V3.14558C56.1765 2.95066 55.6147 2.87804 55.0547 2.87804C54.4948 2.87804 53.9807 2.95066 53.4934 3.14558V14.8525C53.9559 15.0475 54.4929 15.1201 55.0547 15.1201C55.6166 15.1201 56.1517 15.0475 56.639 14.8525V10.805H60.5661V16.7559C59.0297 17.6101 57.0059 17.9752 55.0796 18V17.9981Z" fill="#F7DD43"/>
<path d="M67.9313 17.9981C65.8579 17.9981 63.8589 17.5585 62.2728 16.6565V1.3167C63.8341 0.439536 65.8349 0 67.9313 0C70.0277 0 71.9789 0.414693 73.5402 1.3167V16.6565C72.0037 17.5585 69.9799 17.9732 67.9313 17.9981ZM69.6149 3.19524C69.1525 3.00031 68.5906 2.90285 67.9084 2.90285C67.2262 2.90285 66.6892 3.00031 66.2248 3.19524V14.7799C66.6873 14.9997 67.2491 15.0971 67.9084 15.0971C68.5677 15.0971 69.1276 14.9997 69.6149 14.7799V3.19524Z" fill="#F7DD43"/>
<path d="M80.3931 11.4127H79.3439V17.7783H75.369V0.219779H80.3931C82.7838 0.219779 84.5878 0.707092 86.0019 1.70656V9.92589C84.6126 10.9024 82.7818 11.4127 80.3931 11.4127ZM82.0518 3.24303C81.6868 2.97548 81.1976 2.85318 80.3682 2.85318H79.2942V8.77927H80.3682C81.1728 8.77927 81.6601 8.65697 82.0518 8.41427V3.24303Z" fill="#F7DD43"/>
<path d="M94.3168 17.7783V11.4127H91.391V17.7783H87.4409V1.29185C88.8799 0.437625 90.9037 0 92.8549 0C94.806 0 96.805 0.439537 98.244 1.29185V17.7783H94.3168ZM94.3168 3.04809C93.9021 2.85316 93.39 2.7557 92.853 2.7557C92.316 2.7557 91.8038 2.85316 91.3891 3.04809V8.63211H94.3149V3.04809H94.3168Z" fill="#F7DD43"/>
</svg>
