<svg width="1024" height="753" viewBox="0 0 1024 753" fill="none" xmlns="http://www.w3.org/2000/svg">
<g clip-path="url(#clip0_122_130)">
<rect width="1024" height="753" fill="#121214"/>
<g opacity="0.2" filter="url(#filter0_f_122_130)">
<ellipse cx="512.5" cy="22" rx="670.5" ry="350" fill="#B3A659"/>
</g>
<path d="M33.0349 258C34.5302 258 35.6622 258.63 36.4308 259.891C37.2134 261.138 37.6047 262.953 37.6047 265.336C37.6047 267.719 37.2134 269.541 36.4308 270.802C35.6622 272.063 34.5302 272.693 33.0349 272.693C31.5536 272.693 30.4216 272.063 29.639 270.802C28.8564 269.541 28.4651 267.719 28.4651 265.336C28.4651 262.967 28.8564 261.152 29.639 259.891C30.4216 258.63 31.5536 258 33.0349 258ZM29.9534 265.336C29.9534 267.026 30.1072 268.35 30.4146 269.306L35.0683 260.099C34.5791 259.448 33.9013 259.122 33.0349 259.122C32.0706 259.122 31.316 259.635 30.771 260.66C30.2259 261.672 29.9534 263.23 29.9534 265.336ZM33.0349 271.55C34.0131 271.55 34.7748 271.044 35.3198 270.033C35.8648 269.008 36.1373 267.442 36.1373 265.336C36.1373 263.549 35.9627 262.163 35.6133 261.18L30.9596 270.469C31.4627 271.19 32.1545 271.55 33.0349 271.55Z" fill="url(#paint0_linear_122_130)" fill-opacity="0.6"/>
<path d="M34.2926 295.135H37.3741V296.236H29.3874V295.135H32.9511V283.455L29.5551 285.471L28.9682 284.536L33.1607 281.959H34.2926V295.135Z" fill="url(#paint1_linear_122_130)" fill-opacity="0.6"/>
<path d="M33.0349 305.502C34.5302 305.502 35.6622 306.133 36.4308 307.393C37.2134 308.64 37.6047 310.455 37.6047 312.838C37.6047 315.221 37.2134 317.043 36.4308 318.304C35.6622 319.565 34.5302 320.195 33.0349 320.195C31.5536 320.195 30.4216 319.565 29.639 318.304C28.8564 317.043 28.4651 315.221 28.4651 312.838C28.4651 310.469 28.8564 308.654 29.639 307.393C30.4216 306.133 31.5536 305.502 33.0349 305.502ZM29.9534 312.838C29.9534 314.529 30.1072 315.852 30.4146 316.808L35.0683 307.601C34.5791 306.95 33.9013 306.624 33.0349 306.624C32.0706 306.624 31.316 307.137 30.771 308.162C30.2259 309.174 29.9534 310.732 29.9534 312.838ZM33.0349 319.052C34.0131 319.052 34.7748 318.546 35.3198 317.535C35.8648 316.51 36.1373 314.944 36.1373 312.838C36.1373 311.051 35.9627 309.665 35.6133 308.682L30.9596 317.971C31.4627 318.692 32.1545 319.052 33.0349 319.052Z" fill="url(#paint2_linear_122_130)" fill-opacity="0.6"/>
<path d="M34.2926 342.637H37.3741V343.738H29.3874V342.637H32.9511V330.957L29.5551 332.973L28.9682 332.038L33.1607 329.461H34.2926V342.637Z" fill="url(#paint3_linear_122_130)" fill-opacity="0.6"/>
<path d="M34.2926 366.388H37.3741V367.489H29.3874V366.388H32.9511V354.708L29.5551 356.724L28.9682 355.789L33.1607 353.212H34.2926V366.388Z" fill="url(#paint4_linear_122_130)" fill-opacity="0.6"/>
<path d="M33.0349 376.755C34.5302 376.755 35.6622 377.386 36.4308 378.646C37.2134 379.893 37.6047 381.708 37.6047 384.091C37.6047 386.474 37.2134 388.296 36.4308 389.557C35.6622 390.818 34.5302 391.448 33.0349 391.448C31.5536 391.448 30.4216 390.818 29.639 389.557C28.8564 388.296 28.4651 386.474 28.4651 384.091C28.4651 381.722 28.8564 379.907 29.639 378.646C30.4216 377.386 31.5536 376.755 33.0349 376.755ZM29.9534 384.091C29.9534 385.782 30.1072 387.105 30.4146 388.061L35.0683 378.854C34.5791 378.203 33.9013 377.878 33.0349 377.878C32.0706 377.878 31.316 378.39 30.771 379.415C30.2259 380.427 29.9534 381.985 29.9534 384.091ZM33.0349 390.305C34.0131 390.305 34.7748 389.8 35.3198 388.788C35.8648 387.763 36.1373 386.197 36.1373 384.091C36.1373 382.304 35.9627 380.919 35.6133 379.935L30.9596 389.225C31.4627 389.945 32.1545 390.305 33.0349 390.305Z" fill="url(#paint5_linear_122_130)" fill-opacity="0.6"/>
<path d="M34.2926 413.89H37.3741V414.992H29.3874V413.89H32.9511V402.21L29.5551 404.226L28.9682 403.291L33.1607 400.714H34.2926V413.89Z" fill="url(#paint6_linear_122_130)" fill-opacity="0.6"/>
<path d="M33.0349 424.257C34.5302 424.257 35.6622 424.888 36.4308 426.149C37.2134 427.396 37.6047 429.211 37.6047 431.594C37.6047 433.977 37.2134 435.798 36.4308 437.059C35.6622 438.32 34.5302 438.95 33.0349 438.95C31.5536 438.95 30.4216 438.32 29.639 437.059C28.8564 435.798 28.4651 433.977 28.4651 431.594C28.4651 429.224 28.8564 427.409 29.639 426.149C30.4216 424.888 31.5536 424.257 33.0349 424.257ZM29.9534 431.594C29.9534 433.284 30.1072 434.607 30.4146 435.563L35.0683 426.356C34.5791 425.705 33.9013 425.38 33.0349 425.38C32.0706 425.38 31.316 425.892 30.771 426.918C30.2259 427.929 29.9534 429.488 29.9534 431.594ZM33.0349 437.807C34.0131 437.807 34.7748 437.302 35.3198 436.29C35.8648 435.265 36.1373 433.699 36.1373 431.594C36.1373 429.806 35.9627 428.421 35.6133 427.437L30.9596 436.727C31.4627 437.447 32.1545 437.807 33.0349 437.807Z" fill="url(#paint7_linear_122_130)" fill-opacity="0.6"/>
<path d="M33.0349 448.008C34.5302 448.008 35.6622 448.639 36.4308 449.9C37.2134 451.147 37.6047 452.962 37.6047 455.345C37.6047 457.728 37.2134 459.549 36.4308 460.81C35.6622 462.071 34.5302 462.701 33.0349 462.701C31.5536 462.701 30.4216 462.071 29.639 460.81C28.8564 459.549 28.4651 457.728 28.4651 455.345C28.4651 452.975 28.8564 451.16 29.639 449.9C30.4216 448.639 31.5536 448.008 33.0349 448.008ZM29.9534 455.345C29.9534 457.035 30.1072 458.358 30.4146 459.314L35.0683 450.107C34.5791 449.456 33.9013 449.131 33.0349 449.131C32.0706 449.131 31.316 449.643 30.771 450.669C30.2259 451.68 29.9534 453.239 29.9534 455.345ZM33.0349 461.558C34.0131 461.558 34.7748 461.053 35.3198 460.041C35.8648 459.016 36.1373 457.451 36.1373 455.345C36.1373 453.557 35.9627 452.172 35.6133 451.188L30.9596 460.478C31.4627 461.198 32.1545 461.558 33.0349 461.558Z" fill="url(#paint8_linear_122_130)" fill-opacity="0.6"/>
<path d="M34.2926 485.143H37.3741V486.245H29.3874V485.143H32.9511V473.464L29.5551 475.48L28.9682 474.544L33.1607 471.967H34.2926V485.143Z" fill="url(#paint9_linear_122_130)" fill-opacity="0.6"/>
<path d="M33.0349 495.511C34.5302 495.511 35.6622 496.141 36.4308 497.402C37.2134 498.649 37.6047 500.464 37.6047 502.847C37.6047 505.23 37.2134 507.052 36.4308 508.312C35.6622 509.573 34.5302 510.204 33.0349 510.204C31.5536 510.204 30.4216 509.573 29.639 508.312C28.8564 507.052 28.4651 505.23 28.4651 502.847C28.4651 500.478 28.8564 498.663 29.639 497.402C30.4216 496.141 31.5536 495.511 33.0349 495.511ZM29.9534 502.847C29.9534 504.537 30.1072 505.86 30.4146 506.816L35.0683 497.61C34.5791 496.958 33.9013 496.633 33.0349 496.633C32.0706 496.633 31.316 497.145 30.771 498.171C30.2259 499.182 29.9534 500.741 29.9534 502.847ZM33.0349 509.061C34.0131 509.061 34.7748 508.555 35.3198 507.543C35.8648 506.518 36.1373 504.953 36.1373 502.847C36.1373 501.059 35.9627 499.674 35.6133 498.69L30.9596 507.98C31.4627 508.7 32.1545 509.061 33.0349 509.061Z" fill="url(#paint10_linear_122_130)" fill-opacity="0.6"/>
<path d="M34.2926 532.645H37.3741V533.747H29.3874V532.645H32.9511V520.966L29.5551 522.982L28.9682 522.046L33.1607 519.469H34.2926V532.645Z" fill="url(#paint11_linear_122_130)" fill-opacity="0.6"/>
<path d="M34.2926 556.396H37.3741V557.498H29.3874V556.396H32.9511V544.717L29.5551 546.733L28.9682 545.798L33.1607 543.221H34.2926V556.396Z" fill="url(#paint12_linear_122_130)" fill-opacity="0.6"/>
<path d="M71.9651 305.502C73.4604 305.502 74.5924 306.133 75.361 307.393C76.1436 308.64 76.5349 310.455 76.5349 312.838C76.5349 315.221 76.1436 317.043 75.361 318.304C74.5924 319.565 73.4604 320.195 71.9651 320.195C70.4838 320.195 69.3518 319.565 68.5692 318.304C67.7866 317.043 67.3953 315.221 67.3953 312.838C67.3953 310.469 67.7866 308.654 68.5692 307.393C69.3518 306.133 70.4838 305.502 71.9651 305.502ZM68.8836 312.838C68.8836 314.529 69.0374 315.852 69.3448 316.808L73.9985 307.601C73.5093 306.95 72.8315 306.624 71.9651 306.624C71.0008 306.624 70.2462 307.137 69.7012 308.162C69.1561 309.174 68.8836 310.732 68.8836 312.838ZM71.9651 319.052C72.9433 319.052 73.705 318.546 74.25 317.535C74.795 316.51 75.0675 314.944 75.0675 312.838C75.0675 311.051 74.8928 309.665 74.5435 308.682L69.8898 317.971C70.3929 318.692 71.0847 319.052 71.9651 319.052Z" fill="url(#paint13_linear_122_130)" fill-opacity="0.6"/>
<path d="M73.2228 342.637H76.3043V343.738H68.3176V342.637H71.8812V330.957L68.4853 332.973L67.8984 332.038L72.0909 329.461H73.2228V342.637Z" fill="url(#paint14_linear_122_130)" fill-opacity="0.6"/>
<path d="M71.9651 353.004C73.4604 353.004 74.5924 353.635 75.361 354.895C76.1436 356.142 76.5349 357.957 76.5349 360.34C76.5349 362.723 76.1436 364.545 75.361 365.806C74.5924 367.067 73.4604 367.697 71.9651 367.697C70.4838 367.697 69.3518 367.067 68.5692 365.806C67.7866 364.545 67.3953 362.723 67.3953 360.34C67.3953 357.971 67.7866 356.156 68.5692 354.895C69.3518 353.635 70.4838 353.004 71.9651 353.004ZM68.8836 360.34C68.8836 362.031 69.0374 363.354 69.3448 364.31L73.9985 355.103C73.5093 354.452 72.8315 354.126 71.9651 354.126C71.0008 354.126 70.2462 354.639 69.7012 355.664C69.1561 356.676 68.8836 358.234 68.8836 360.34ZM71.9651 366.554C72.9433 366.554 73.705 366.049 74.25 365.037C74.795 364.012 75.0675 362.446 75.0675 360.34C75.0675 358.553 74.8928 357.168 74.5435 356.184L69.8898 365.474C70.3929 366.194 71.0847 366.554 71.9651 366.554Z" fill="url(#paint15_linear_122_130)" fill-opacity="0.6"/>
<path d="M71.9651 376.755C73.4604 376.755 74.5924 377.386 75.361 378.646C76.1436 379.893 76.5349 381.708 76.5349 384.091C76.5349 386.474 76.1436 388.296 75.361 389.557C74.5924 390.818 73.4604 391.448 71.9651 391.448C70.4838 391.448 69.3518 390.818 68.5692 389.557C67.7866 388.296 67.3953 386.474 67.3953 384.091C67.3953 381.722 67.7866 379.907 68.5692 378.646C69.3518 377.386 70.4838 376.755 71.9651 376.755ZM68.8836 384.091C68.8836 385.782 69.0374 387.105 69.3448 388.061L73.9985 378.854C73.5093 378.203 72.8315 377.878 71.9651 377.878C71.0008 377.878 70.2462 378.39 69.7012 379.415C69.1561 380.427 68.8836 381.985 68.8836 384.091ZM71.9651 390.305C72.9433 390.305 73.705 389.8 74.25 388.788C74.795 387.763 75.0675 386.197 75.0675 384.091C75.0675 382.304 74.8928 380.919 74.5435 379.935L69.8898 389.225C70.3929 389.945 71.0847 390.305 71.9651 390.305Z" fill="url(#paint16_linear_122_130)" fill-opacity="0.6"/>
<path d="M73.2228 413.89H76.3043V414.992H68.3176V413.89H71.8812V402.21L68.4853 404.226L67.8984 403.291L72.0909 400.714H73.2228V413.89Z" fill="url(#paint17_linear_122_130)" fill-opacity="0.6"/>
<path d="M71.9651 424.257C73.4604 424.257 74.5924 424.888 75.361 426.149C76.1436 427.396 76.5349 429.211 76.5349 431.594C76.5349 433.977 76.1436 435.798 75.361 437.059C74.5924 438.32 73.4604 438.95 71.9651 438.95C70.4838 438.95 69.3518 438.32 68.5692 437.059C67.7866 435.798 67.3953 433.977 67.3953 431.594C67.3953 429.224 67.7866 427.409 68.5692 426.149C69.3518 424.888 70.4838 424.257 71.9651 424.257ZM68.8836 431.594C68.8836 433.284 69.0374 434.607 69.3448 435.563L73.9985 426.356C73.5093 425.705 72.8315 425.38 71.9651 425.38C71.0008 425.38 70.2462 425.892 69.7012 426.918C69.1561 427.929 68.8836 429.488 68.8836 431.594ZM71.9651 437.807C72.9433 437.807 73.705 437.302 74.25 436.29C74.795 435.265 75.0675 433.699 75.0675 431.594C75.0675 429.806 74.8928 428.421 74.5435 427.437L69.8898 436.727C70.3929 437.447 71.0847 437.807 71.9651 437.807Z" fill="url(#paint18_linear_122_130)" fill-opacity="0.6"/>
<path d="M73.2228 461.392H76.3043V462.494H68.3176V461.392H71.8812V449.713L68.4853 451.728L67.8984 450.793L72.0909 448.216H73.2228V461.392Z" fill="url(#paint19_linear_122_130)" fill-opacity="0.6"/>
<path d="M71.9651 471.76C73.4604 471.76 74.5924 472.39 75.361 473.651C76.1436 474.898 76.5349 476.713 76.5349 479.096C76.5349 481.479 76.1436 483.301 75.361 484.561C74.5924 485.822 73.4604 486.453 71.9651 486.453C70.4838 486.453 69.3518 485.822 68.5692 484.561C67.7866 483.301 67.3953 481.479 67.3953 479.096C67.3953 476.726 67.7866 474.911 68.5692 473.651C69.3518 472.39 70.4838 471.76 71.9651 471.76ZM68.8836 479.096C68.8836 480.786 69.0374 482.109 69.3448 483.065L73.9985 473.859C73.5093 473.207 72.8315 472.882 71.9651 472.882C71.0008 472.882 70.2462 473.394 69.7012 474.42C69.1561 475.431 68.8836 476.99 68.8836 479.096ZM71.9651 485.31C72.9433 485.31 73.705 484.804 74.25 483.792C74.795 482.767 75.0675 481.202 75.0675 479.096C75.0675 477.308 74.8928 475.923 74.5435 474.939L69.8898 484.229C70.3929 484.949 71.0847 485.31 71.9651 485.31Z" fill="url(#paint20_linear_122_130)" fill-opacity="0.6"/>
<path d="M71.9651 495.511C73.4604 495.511 74.5924 496.141 75.361 497.402C76.1436 498.649 76.5349 500.464 76.5349 502.847C76.5349 505.23 76.1436 507.052 75.361 508.312C74.5924 509.573 73.4604 510.204 71.9651 510.204C70.4838 510.204 69.3518 509.573 68.5692 508.312C67.7866 507.052 67.3953 505.23 67.3953 502.847C67.3953 500.478 67.7866 498.663 68.5692 497.402C69.3518 496.141 70.4838 495.511 71.9651 495.511ZM68.8836 502.847C68.8836 504.537 69.0374 505.86 69.3448 506.816L73.9985 497.61C73.5093 496.958 72.8315 496.633 71.9651 496.633C71.0008 496.633 70.2462 497.145 69.7012 498.171C69.1561 499.182 68.8836 500.741 68.8836 502.847ZM71.9651 509.061C72.9433 509.061 73.705 508.555 74.25 507.543C74.795 506.518 75.0675 504.953 75.0675 502.847C75.0675 501.059 74.8928 499.674 74.5435 498.69L69.8898 507.98C70.3929 508.7 71.0847 509.061 71.9651 509.061Z" fill="url(#paint21_linear_122_130)" fill-opacity="0.6"/>
<path d="M73.2228 532.645H76.3043V533.747H68.3176V532.645H71.8812V520.966L68.4853 522.982L67.8984 522.046L72.0909 519.469H73.2228V532.645Z" fill="url(#paint22_linear_122_130)" fill-opacity="0.6"/>
<path d="M71.9651 543.013C73.4604 543.013 74.5924 543.643 75.361 544.904C76.1436 546.151 76.5349 547.966 76.5349 550.349C76.5349 552.732 76.1436 554.554 75.361 555.815C74.5924 557.075 73.4604 557.706 71.9651 557.706C70.4838 557.706 69.3518 557.075 68.5692 555.815C67.7866 554.554 67.3953 552.732 67.3953 550.349C67.3953 547.98 67.7866 546.165 68.5692 544.904C69.3518 543.643 70.4838 543.013 71.9651 543.013ZM68.8836 550.349C68.8836 552.039 69.0374 553.362 69.3448 554.318L73.9985 545.112C73.5093 544.461 72.8315 544.135 71.9651 544.135C71.0008 544.135 70.2462 544.648 69.7012 545.673C69.1561 546.684 68.8836 548.243 68.8836 550.349ZM71.9651 556.563C72.9433 556.563 73.705 556.057 74.25 555.046C74.795 554.02 75.0675 552.455 75.0675 550.349C75.0675 548.562 74.8928 547.176 74.5435 546.192L69.8898 555.482C70.3929 556.202 71.0847 556.563 71.9651 556.563Z" fill="url(#paint23_linear_122_130)" fill-opacity="0.6"/>
<path d="M73.2228 580.148H76.3043V581.249H68.3176V580.148H71.8812V568.468L68.4853 570.484L67.8984 569.549L72.0909 566.972H73.2228V580.148Z" fill="url(#paint24_linear_122_130)" fill-opacity="0.6"/>
<path d="M73.2228 603.899H76.3043V605H68.3176V603.899H71.8812V592.219L68.4853 594.235L67.8984 593.3L72.0909 590.723H73.2228V603.899Z" fill="url(#paint25_linear_122_130)" fill-opacity="0.6"/>
<path d="M13.5698 329.253C15.0651 329.253 16.1971 329.884 16.9657 331.144C17.7483 332.391 18.1396 334.206 18.1396 336.589C18.1396 338.972 17.7483 340.794 16.9657 342.055C16.1971 343.316 15.0651 343.946 13.5698 343.946C12.0885 343.946 10.9565 343.316 10.1739 342.055C9.3913 340.794 9 338.972 9 336.589C9 334.22 9.3913 332.405 10.1739 331.144C10.9565 329.884 12.0885 329.253 13.5698 329.253ZM10.4883 336.589C10.4883 338.28 10.6421 339.603 10.9495 340.559L15.6032 331.352C15.114 330.701 14.4363 330.375 13.5698 330.375C12.6055 330.375 11.8509 330.888 11.3059 331.913C10.7608 332.925 10.4883 334.483 10.4883 336.589ZM13.5698 342.803C14.5481 342.803 15.3097 342.297 15.8547 341.286C16.3997 340.261 16.6722 338.695 16.6722 336.589C16.6722 334.802 16.4976 333.417 16.1482 332.433L11.4945 341.722C11.9976 342.443 12.6894 342.803 13.5698 342.803Z" fill="url(#paint26_linear_122_130)" fill-opacity="0.6"/>
<path d="M13.5698 353.004C15.0651 353.004 16.1971 353.635 16.9657 354.895C17.7483 356.142 18.1396 357.957 18.1396 360.34C18.1396 362.723 17.7483 364.545 16.9657 365.806C16.1971 367.067 15.0651 367.697 13.5698 367.697C12.0885 367.697 10.9565 367.067 10.1739 365.806C9.3913 364.545 9 362.723 9 360.34C9 357.971 9.3913 356.156 10.1739 354.895C10.9565 353.635 12.0885 353.004 13.5698 353.004ZM10.4883 360.34C10.4883 362.031 10.6421 363.354 10.9495 364.31L15.6032 355.103C15.114 354.452 14.4363 354.126 13.5698 354.126C12.6055 354.126 11.8509 354.639 11.3059 355.664C10.7608 356.676 10.4883 358.234 10.4883 360.34ZM13.5698 366.554C14.5481 366.554 15.3097 366.049 15.8547 365.037C16.3997 364.012 16.6722 362.446 16.6722 360.34C16.6722 358.553 16.4976 357.168 16.1482 356.184L11.4945 365.474C11.9976 366.194 12.6894 366.554 13.5698 366.554Z" fill="url(#paint27_linear_122_130)" fill-opacity="0.6"/>
<path d="M14.8276 390.139H17.909V391.24H9.92235V390.139H13.486V378.459L10.09 380.475L9.5031 379.54L13.6956 376.963H14.8276V390.139Z" fill="url(#paint28_linear_122_130)" fill-opacity="0.6"/>
<path d="M13.5698 400.506C15.0651 400.506 16.1971 401.137 16.9657 402.398C17.7483 403.644 18.1396 405.459 18.1396 407.842C18.1396 410.225 17.7483 412.047 16.9657 413.308C16.1971 414.569 15.0651 415.199 13.5698 415.199C12.0885 415.199 10.9565 414.569 10.1739 413.308C9.3913 412.047 9 410.225 9 407.842C9 405.473 9.3913 403.658 10.1739 402.398C10.9565 401.137 12.0885 400.506 13.5698 400.506ZM10.4883 407.842C10.4883 409.533 10.6421 410.856 10.9495 411.812L15.6032 402.605C15.114 401.954 14.4363 401.629 13.5698 401.629C12.6055 401.629 11.8509 402.141 11.3059 403.166C10.7608 404.178 10.4883 405.737 10.4883 407.842ZM13.5698 414.056C14.5481 414.056 15.3097 413.551 15.8547 412.539C16.3997 411.514 16.6722 409.948 16.6722 407.842C16.6722 406.055 16.4976 404.67 16.1482 403.686L11.4945 412.976C11.9976 413.696 12.6894 414.056 13.5698 414.056Z" fill="url(#paint29_linear_122_130)" fill-opacity="0.6"/>
<path d="M14.8276 437.641H17.909V438.743H9.92235V437.641H13.486V425.962L10.09 427.977L9.5031 427.042L13.6956 424.465H14.8276V437.641Z" fill="url(#paint30_linear_122_130)" fill-opacity="0.6"/>
<path d="M14.8276 461.392H17.909V462.494H9.92235V461.392H13.486V449.713L10.09 451.728L9.5031 450.793L13.6956 448.216H14.8276V461.392Z" fill="url(#paint31_linear_122_130)" fill-opacity="0.6"/>
<path d="M53.7577 295.135H56.8392V296.236H48.8525V295.135H52.4162V283.455L49.0202 285.471L48.4333 284.536L52.6258 281.959H53.7577V295.135Z" fill="url(#paint32_linear_122_130)" fill-opacity="0.6"/>
<path d="M52.5 305.502C53.9953 305.502 55.1273 306.133 55.8959 307.393C56.6785 308.64 57.0698 310.455 57.0698 312.838C57.0698 315.221 56.6785 317.043 55.8959 318.304C55.1273 319.565 53.9953 320.195 52.5 320.195C51.0187 320.195 49.8867 319.565 49.1041 318.304C48.3215 317.043 47.9302 315.221 47.9302 312.838C47.9302 310.469 48.3215 308.654 49.1041 307.393C49.8867 306.133 51.0187 305.502 52.5 305.502ZM49.4185 312.838C49.4185 314.529 49.5723 315.852 49.8797 316.808L54.5334 307.601C54.0442 306.95 53.3664 306.624 52.5 306.624C51.5357 306.624 50.7811 307.137 50.2361 308.162C49.691 309.174 49.4185 310.732 49.4185 312.838ZM52.5 319.052C53.4782 319.052 54.2399 318.546 54.7849 317.535C55.3299 316.51 55.6024 314.944 55.6024 312.838C55.6024 311.051 55.4277 309.665 55.0784 308.682L50.4247 317.971C50.9278 318.692 51.6196 319.052 52.5 319.052Z" fill="url(#paint33_linear_122_130)" fill-opacity="0.6"/>
<path d="M53.7577 342.637H56.8392V343.738H48.8525V342.637H52.4162V330.957L49.0202 332.973L48.4333 332.038L52.6258 329.461H53.7577V342.637Z" fill="url(#paint34_linear_122_130)" fill-opacity="0.6"/>
<path d="M53.7577 366.388H56.8392V367.489H48.8525V366.388H52.4162V354.708L49.0202 356.724L48.4333 355.789L52.6258 353.212H53.7577V366.388Z" fill="url(#paint35_linear_122_130)" fill-opacity="0.6"/>
<path d="M52.5 376.755C53.9953 376.755 55.1273 377.386 55.8959 378.646C56.6785 379.893 57.0698 381.708 57.0698 384.091C57.0698 386.474 56.6785 388.296 55.8959 389.557C55.1273 390.818 53.9953 391.448 52.5 391.448C51.0187 391.448 49.8867 390.818 49.1041 389.557C48.3215 388.296 47.9302 386.474 47.9302 384.091C47.9302 381.722 48.3215 379.907 49.1041 378.646C49.8867 377.386 51.0187 376.755 52.5 376.755ZM49.4185 384.091C49.4185 385.782 49.5723 387.105 49.8797 388.061L54.5334 378.854C54.0442 378.203 53.3664 377.878 52.5 377.878C51.5357 377.878 50.7811 378.39 50.2361 379.415C49.691 380.427 49.4185 381.985 49.4185 384.091ZM52.5 390.305C53.4782 390.305 54.2399 389.8 54.7849 388.788C55.3299 387.763 55.6024 386.197 55.6024 384.091C55.6024 382.304 55.4277 380.919 55.0784 379.935L50.4247 389.225C50.9278 389.945 51.6196 390.305 52.5 390.305Z" fill="url(#paint36_linear_122_130)" fill-opacity="0.6"/>
<path d="M53.7577 413.89H56.8392V414.992H48.8525V413.89H52.4162V402.21L49.0202 404.226L48.4333 403.291L52.6258 400.714H53.7577V413.89Z" fill="url(#paint37_linear_122_130)" fill-opacity="0.6"/>
<path d="M53.7577 437.641H56.8392V438.743H48.8525V437.641H52.4162V425.962L49.0202 427.977L48.4333 427.042L52.6258 424.465H53.7577V437.641Z" fill="url(#paint38_linear_122_130)" fill-opacity="0.6"/>
<path d="M52.5 448.008C53.9953 448.008 55.1273 448.639 55.8959 449.9C56.6785 451.147 57.0698 452.962 57.0698 455.345C57.0698 457.728 56.6785 459.549 55.8959 460.81C55.1273 462.071 53.9953 462.701 52.5 462.701C51.0187 462.701 49.8867 462.071 49.1041 460.81C48.3215 459.549 47.9302 457.728 47.9302 455.345C47.9302 452.975 48.3215 451.16 49.1041 449.9C49.8867 448.639 51.0187 448.008 52.5 448.008ZM49.4185 455.345C49.4185 457.035 49.5723 458.358 49.8797 459.314L54.5334 450.107C54.0442 449.456 53.3664 449.131 52.5 449.131C51.5357 449.131 50.7811 449.643 50.2361 450.669C49.691 451.68 49.4185 453.239 49.4185 455.345ZM52.5 461.558C53.4782 461.558 54.2399 461.053 54.7849 460.041C55.3299 459.016 55.6024 457.451 55.6024 455.345C55.6024 453.557 55.4277 452.172 55.0784 451.188L50.4247 460.478C50.9278 461.198 51.6196 461.558 52.5 461.558Z" fill="url(#paint39_linear_122_130)" fill-opacity="0.6"/>
<path d="M53.7577 485.143H56.8392V486.245H48.8525V485.143H52.4162V473.464L49.0202 475.48L48.4333 474.544L52.6258 471.967H53.7577V485.143Z" fill="url(#paint40_linear_122_130)" fill-opacity="0.6"/>
<path d="M52.5 495.511C53.9953 495.511 55.1273 496.141 55.8959 497.402C56.6785 498.649 57.0698 500.464 57.0698 502.847C57.0698 505.23 56.6785 507.052 55.8959 508.312C55.1273 509.573 53.9953 510.204 52.5 510.204C51.0187 510.204 49.8867 509.573 49.1041 508.312C48.3215 507.052 47.9302 505.23 47.9302 502.847C47.9302 500.478 48.3215 498.663 49.1041 497.402C49.8867 496.141 51.0187 495.511 52.5 495.511ZM49.4185 502.847C49.4185 504.537 49.5723 505.86 49.8797 506.816L54.5334 497.61C54.0442 496.958 53.3664 496.633 52.5 496.633C51.5357 496.633 50.7811 497.145 50.2361 498.171C49.691 499.182 49.4185 500.741 49.4185 502.847ZM52.5 509.061C53.4782 509.061 54.2399 508.555 54.7849 507.543C55.3299 506.518 55.6024 504.953 55.6024 502.847C55.6024 501.059 55.4277 499.674 55.0784 498.69L50.4247 507.98C50.9278 508.7 51.6196 509.061 52.5 509.061Z" fill="url(#paint41_linear_122_130)" fill-opacity="0.6"/>
<path d="M91.4302 281.751C92.9255 281.751 94.0575 282.381 94.8261 283.642C95.6087 284.889 96 286.704 96 289.087C96 291.47 95.6087 293.292 94.8261 294.553C94.0575 295.814 92.9255 296.444 91.4302 296.444C89.9489 296.444 88.8169 295.814 88.0343 294.553C87.2517 293.292 86.8604 291.47 86.8604 289.087C86.8604 286.718 87.2517 284.903 88.0343 283.642C88.8169 282.381 89.9489 281.751 91.4302 281.751ZM88.3487 289.087C88.3487 290.777 88.5024 292.101 88.8099 293.057L93.4636 283.85C92.9744 283.199 92.2966 282.873 91.4302 282.873C90.4659 282.873 89.7113 283.386 89.1663 284.411C88.6212 285.423 88.3487 286.981 88.3487 289.087ZM91.4302 295.301C92.4084 295.301 93.1701 294.795 93.7151 293.784C94.2601 292.759 94.5326 291.193 94.5326 289.087C94.5326 287.3 94.3579 285.914 94.0086 284.931L89.3549 294.22C89.858 294.941 90.5498 295.301 91.4302 295.301Z" fill="url(#paint42_linear_122_130)" fill-opacity="0.6"/>
<path d="M92.6879 318.886H95.7694V319.987H87.7827V318.886H91.3463V307.206L87.9504 309.222L87.3635 308.287L91.556 305.71H92.6879V318.886Z" fill="url(#paint43_linear_122_130)" fill-opacity="0.6"/>
<path d="M92.6879 342.637H95.7694V343.738H87.7827V342.637H91.3463V330.957L87.9504 332.973L87.3635 332.038L91.556 329.461H92.6879V342.637Z" fill="url(#paint44_linear_122_130)" fill-opacity="0.6"/>
<path d="M91.4302 353.004C92.9255 353.004 94.0575 353.635 94.8261 354.895C95.6087 356.142 96 357.957 96 360.34C96 362.723 95.6087 364.545 94.8261 365.806C94.0575 367.067 92.9255 367.697 91.4302 367.697C89.9489 367.697 88.8169 367.067 88.0343 365.806C87.2517 364.545 86.8604 362.723 86.8604 360.34C86.8604 357.971 87.2517 356.156 88.0343 354.895C88.8169 353.635 89.9489 353.004 91.4302 353.004ZM88.3487 360.34C88.3487 362.031 88.5024 363.354 88.8099 364.31L93.4636 355.103C92.9744 354.452 92.2966 354.126 91.4302 354.126C90.4659 354.126 89.7113 354.639 89.1663 355.664C88.6212 356.676 88.3487 358.234 88.3487 360.34ZM91.4302 366.554C92.4084 366.554 93.1701 366.049 93.7151 365.037C94.2601 364.012 94.5326 362.446 94.5326 360.34C94.5326 358.553 94.3579 357.168 94.0086 356.184L89.3549 365.474C89.858 366.194 90.5498 366.554 91.4302 366.554Z" fill="url(#paint45_linear_122_130)" fill-opacity="0.6"/>
<path d="M91.4302 376.755C92.9255 376.755 94.0575 377.386 94.8261 378.646C95.6087 379.893 96 381.708 96 384.091C96 386.474 95.6087 388.296 94.8261 389.557C94.0575 390.818 92.9255 391.448 91.4302 391.448C89.9489 391.448 88.8169 390.818 88.0343 389.557C87.2517 388.296 86.8604 386.474 86.8604 384.091C86.8604 381.722 87.2517 379.907 88.0343 378.646C88.8169 377.386 89.9489 376.755 91.4302 376.755ZM88.3487 384.091C88.3487 385.782 88.5024 387.105 88.8099 388.061L93.4636 378.854C92.9744 378.203 92.2966 377.878 91.4302 377.878C90.4659 377.878 89.7113 378.39 89.1663 379.415C88.6212 380.427 88.3487 381.985 88.3487 384.091ZM91.4302 390.305C92.4084 390.305 93.1701 389.8 93.7151 388.788C94.2601 387.763 94.5326 386.197 94.5326 384.091C94.5326 382.304 94.3579 380.919 94.0086 379.935L89.3549 389.225C89.858 389.945 90.5498 390.305 91.4302 390.305Z" fill="url(#paint46_linear_122_130)" fill-opacity="0.6"/>
<g opacity="0.6">
<path d="M919.93 -42C921.356 -42 922.436 -41.395 923.17 -40.1851C923.916 -38.9885 924.29 -37.2468 924.29 -34.9599C924.29 -32.673 923.916 -30.9246 923.17 -29.7147C922.436 -28.5048 921.356 -27.8998 919.93 -27.8998C918.517 -27.8998 917.437 -28.5048 916.69 -29.7147C915.943 -30.9246 915.57 -32.673 915.57 -34.9599C915.57 -37.2335 915.943 -38.9752 916.69 -40.1851C917.437 -41.395 918.517 -42 919.93 -42ZM916.99 -34.9599C916.99 -33.3378 917.137 -32.068 917.43 -31.1506L921.87 -39.9857C921.403 -40.6106 920.756 -40.923 919.93 -40.923C919.01 -40.923 918.29 -40.4311 917.77 -39.4472C917.25 -38.4766 916.99 -36.9808 916.99 -34.9599ZM919.93 -28.9967C920.863 -28.9967 921.59 -29.482 922.11 -30.4526C922.63 -31.4365 922.89 -32.9389 922.89 -34.9599C922.89 -36.675 922.723 -38.0046 922.39 -38.9486L917.95 -30.0338C918.43 -29.3424 919.09 -28.9967 919.93 -28.9967Z" fill="url(#paint47_linear_122_130)"/>
<path d="M921.13 -6.36345H924.07V-5.30644H916.45V-6.36345H919.85V-17.5718L916.61 -15.6373L916.05 -16.5347L920.05 -19.0078H921.13V-6.36345Z" fill="url(#paint48_linear_122_130)"/>
<path d="M919.93 3.58561C921.356 3.58561 922.436 4.19057 923.17 5.40048C923.916 6.59711 924.29 8.33886 924.29 10.6257C924.29 12.9126 923.916 14.661 923.17 15.8709C922.436 17.0808 921.356 17.6858 919.93 17.6858C918.517 17.6858 917.437 17.0808 916.69 15.8709C915.943 14.661 915.57 12.9126 915.57 10.6257C915.57 8.35215 915.943 6.6104 916.69 5.40048C917.437 4.19057 918.517 3.58561 919.93 3.58561ZM916.99 10.6257C916.99 12.2478 917.137 13.5176 917.43 14.435L921.87 5.59992C921.403 4.97502 920.756 4.66256 919.93 4.66256C919.01 4.66256 918.29 5.15451 917.77 6.1384C917.25 7.10899 916.99 8.60477 916.99 10.6257ZM919.93 16.5889C920.863 16.5889 921.59 16.1036 922.11 15.133C922.63 14.1491 922.89 12.6467 922.89 10.6257C922.89 8.91057 922.723 7.58099 922.39 6.63699L917.95 15.5518C918.43 16.2432 919.09 16.5889 919.93 16.5889Z" fill="url(#paint49_linear_122_130)"/>
<path d="M921.13 39.2221H924.07V40.2792H916.45V39.2221H919.85V28.0138L916.61 29.9483L916.05 29.0509L920.05 26.5778H921.13V39.2221Z" fill="url(#paint50_linear_122_130)"/>
<path d="M921.13 62.015H924.07V63.072H916.45V62.015H919.85V50.8066L916.61 52.7411L916.05 51.8437L920.05 49.3706H921.13V62.015Z" fill="url(#paint51_linear_122_130)"/>
<path d="M919.93 71.964C921.356 71.964 922.436 72.569 923.17 73.7789C923.916 74.9755 924.29 76.7173 924.29 79.0041C924.29 81.291 923.916 83.0394 923.17 84.2493C922.436 85.4593 921.356 86.0642 919.93 86.0642C918.517 86.0642 917.437 85.4593 916.69 84.2493C915.943 83.0394 915.57 81.291 915.57 79.0041C915.57 76.7306 915.943 74.9888 916.69 73.7789C917.437 72.569 918.517 71.964 919.93 71.964ZM916.99 79.0041C916.99 80.6262 917.137 81.896 917.43 82.8134L921.87 73.9783C921.403 73.3534 920.756 73.041 919.93 73.041C919.01 73.041 918.29 73.5329 917.77 74.5168C917.25 75.4874 916.99 76.9832 916.99 79.0041ZM919.93 84.9673C920.863 84.9673 921.59 84.482 922.11 83.5114C922.63 82.5275 922.89 81.0251 922.89 79.0041C922.89 77.289 922.723 75.9594 922.39 75.0154L917.95 83.9302C918.43 84.6216 919.09 84.9673 919.93 84.9673Z" fill="url(#paint52_linear_122_130)"/>
<path d="M921.13 107.601H924.07V108.658H916.45V107.601H919.85V96.3922L916.61 98.3267L916.05 97.4293L920.05 94.9562H921.13V107.601Z" fill="url(#paint53_linear_122_130)"/>
<path d="M919.93 117.55C921.356 117.55 922.436 118.155 923.17 119.365C923.916 120.561 924.29 122.303 924.29 124.59C924.29 126.877 923.916 128.625 923.17 129.835C922.436 131.045 921.356 131.65 919.93 131.65C918.517 131.65 917.437 131.045 916.69 129.835C915.943 128.625 915.57 126.877 915.57 124.59C915.57 122.316 915.943 120.574 916.69 119.365C917.437 118.155 918.517 117.55 919.93 117.55ZM916.99 124.59C916.99 126.212 917.137 127.482 917.43 128.399L921.87 119.564C921.403 118.939 920.756 118.627 919.93 118.627C919.01 118.627 918.29 119.119 917.77 120.102C917.25 121.073 916.99 122.569 916.99 124.59ZM919.93 130.553C920.863 130.553 921.59 130.068 922.11 129.097C922.63 128.113 922.89 126.611 922.89 124.59C922.89 122.875 922.723 121.545 922.39 120.601L917.95 129.516C918.43 130.207 919.09 130.553 919.93 130.553Z" fill="url(#paint54_linear_122_130)"/>
<path d="M919.93 140.342C921.356 140.342 922.436 140.947 923.17 142.157C923.916 143.354 924.29 145.096 924.29 147.383C924.29 149.669 923.916 151.418 923.17 152.628C922.436 153.838 921.356 154.443 919.93 154.443C918.517 154.443 917.437 153.838 916.69 152.628C915.943 151.418 915.57 149.669 915.57 147.383C915.57 145.109 915.943 143.367 916.69 142.157C917.437 140.947 918.517 140.342 919.93 140.342ZM916.99 147.383C916.99 149.005 917.137 150.274 917.43 151.192L921.87 142.357C921.403 141.732 920.756 141.419 919.93 141.419C919.01 141.419 918.29 141.911 917.77 142.895C917.25 143.866 916.99 145.362 916.99 147.383ZM919.93 153.346C920.863 153.346 921.59 152.86 922.11 151.89C922.63 150.906 922.89 149.404 922.89 147.383C922.89 145.667 922.723 144.338 922.39 143.394L917.95 152.309C918.43 153 919.09 153.346 919.93 153.346Z" fill="url(#paint55_linear_122_130)"/>
<path d="M921.13 175.979H924.07V177.036H916.45V175.979H919.85V164.771L916.61 166.705L916.05 165.808L920.05 163.335H921.13V175.979Z" fill="url(#paint56_linear_122_130)"/>
<path d="M919.93 185.928C921.356 185.928 922.436 186.533 923.17 187.743C923.916 188.94 924.29 190.681 924.29 192.968C924.29 195.255 923.916 197.003 923.17 198.213C922.436 199.423 921.356 200.028 919.93 200.028C918.517 200.028 917.437 199.423 916.69 198.213C915.943 197.003 915.57 195.255 915.57 192.968C915.57 190.695 915.943 188.953 916.69 187.743C917.437 186.533 918.517 185.928 919.93 185.928ZM916.99 192.968C916.99 194.59 917.137 195.86 917.43 196.777L921.87 187.942C921.403 187.317 920.756 187.005 919.93 187.005C919.01 187.005 918.29 187.497 917.77 188.481C917.25 189.451 916.99 190.947 916.99 192.968ZM919.93 198.931C920.863 198.931 921.59 198.446 922.11 197.475C922.63 196.492 922.89 194.989 922.89 192.968C922.89 191.253 922.723 189.923 922.39 188.979L917.95 197.894C918.43 198.586 919.09 198.931 919.93 198.931Z" fill="url(#paint57_linear_122_130)"/>
<path d="M921.13 221.565H924.07V222.622H916.45V221.565H919.85V210.356L916.61 212.291L916.05 211.393L920.05 208.92H921.13V221.565Z" fill="url(#paint58_linear_122_130)"/>
<path d="M921.13 244.357H924.07V245.414H916.45V244.357H919.85V233.149L916.61 235.084L916.05 234.186L920.05 231.713H921.13V244.357Z" fill="url(#paint59_linear_122_130)"/>
<path d="M957.07 3.58561C958.497 3.58561 959.577 4.19057 960.31 5.40048C961.057 6.59711 961.43 8.33886 961.43 10.6257C961.43 12.9126 961.057 14.661 960.31 15.8709C959.577 17.0808 958.497 17.6858 957.07 17.6858C955.657 17.6858 954.577 17.0808 953.83 15.8709C953.084 14.661 952.71 12.9126 952.71 10.6257C952.71 8.35215 953.084 6.6104 953.83 5.40048C954.577 4.19057 955.657 3.58561 957.07 3.58561ZM954.13 10.6257C954.13 12.2478 954.277 13.5176 954.57 14.435L959.01 5.59992C958.543 4.97502 957.897 4.66256 957.07 4.66256C956.15 4.66256 955.43 5.15451 954.91 6.1384C954.39 7.10899 954.13 8.60477 954.13 10.6257ZM957.07 16.5889C958.003 16.5889 958.73 16.1036 959.25 15.133C959.77 14.1491 960.03 12.6467 960.03 10.6257C960.03 8.91057 959.863 7.58099 959.53 6.63699L955.09 15.5518C955.57 16.2432 956.23 16.5889 957.07 16.5889Z" fill="url(#paint60_linear_122_130)"/>
<path d="M958.27 39.2221H961.21V40.2792H953.59V39.2221H956.99V28.0138L953.75 29.9483L953.19 29.0509L957.19 26.5778H958.27V39.2221Z" fill="url(#paint61_linear_122_130)"/>
<path d="M957.07 49.1712C958.497 49.1712 959.577 49.7762 960.31 50.9861C961.057 52.1827 961.43 53.9245 961.43 56.2113C961.43 58.4982 961.057 60.2466 960.31 61.4565C959.577 62.6664 958.497 63.2714 957.07 63.2714C955.657 63.2714 954.577 62.6664 953.83 61.4565C953.084 60.2466 952.71 58.4982 952.71 56.2113C952.71 53.9378 953.084 52.196 953.83 50.9861C954.577 49.7762 955.657 49.1712 957.07 49.1712ZM954.13 56.2113C954.13 57.8334 954.277 59.1032 954.57 60.0206L959.01 51.1855C958.543 50.5606 957.897 50.2482 957.07 50.2482C956.15 50.2482 955.43 50.7401 954.91 51.724C954.39 52.6946 954.13 54.1904 954.13 56.2113ZM957.07 62.1745C958.003 62.1745 958.73 61.6892 959.25 60.7186C959.77 59.7347 960.03 58.2323 960.03 56.2113C960.03 54.4962 959.863 53.1666 959.53 52.2226L955.09 61.1374C955.57 61.8288 956.23 62.1745 957.07 62.1745Z" fill="url(#paint62_linear_122_130)"/>
<path d="M957.07 71.964C958.497 71.964 959.577 72.569 960.31 73.7789C961.057 74.9755 961.43 76.7173 961.43 79.0041C961.43 81.291 961.057 83.0394 960.31 84.2493C959.577 85.4593 958.497 86.0642 957.07 86.0642C955.657 86.0642 954.577 85.4593 953.83 84.2493C953.084 83.0394 952.71 81.291 952.71 79.0041C952.71 76.7306 953.084 74.9888 953.83 73.7789C954.577 72.569 955.657 71.964 957.07 71.964ZM954.13 79.0041C954.13 80.6262 954.277 81.896 954.57 82.8134L959.01 73.9783C958.543 73.3534 957.897 73.041 957.07 73.041C956.15 73.041 955.43 73.5329 954.91 74.5168C954.39 75.4874 954.13 76.9832 954.13 79.0041ZM957.07 84.9673C958.003 84.9673 958.73 84.482 959.25 83.5114C959.77 82.5275 960.03 81.0251 960.03 79.0041C960.03 77.289 959.863 75.9594 959.53 75.0154L955.09 83.9302C955.57 84.6216 956.23 84.9673 957.07 84.9673Z" fill="url(#paint63_linear_122_130)"/>
<path d="M958.27 107.601H961.21V108.658H953.59V107.601H956.99V96.3922L953.75 98.3267L953.19 97.4293L957.19 94.9562H958.27V107.601Z" fill="url(#paint64_linear_122_130)"/>
<path d="M957.07 117.55C958.497 117.55 959.577 118.155 960.31 119.365C961.057 120.561 961.43 122.303 961.43 124.59C961.43 126.877 961.057 128.625 960.31 129.835C959.577 131.045 958.497 131.65 957.07 131.65C955.657 131.65 954.577 131.045 953.83 129.835C953.084 128.625 952.71 126.877 952.71 124.59C952.71 122.316 953.084 120.574 953.83 119.365C954.577 118.155 955.657 117.55 957.07 117.55ZM954.13 124.59C954.13 126.212 954.277 127.482 954.57 128.399L959.01 119.564C958.543 118.939 957.897 118.627 957.07 118.627C956.15 118.627 955.43 119.119 954.91 120.102C954.39 121.073 954.13 122.569 954.13 124.59ZM957.07 130.553C958.003 130.553 958.73 130.068 959.25 129.097C959.77 128.113 960.03 126.611 960.03 124.59C960.03 122.875 959.863 121.545 959.53 120.601L955.09 129.516C955.57 130.207 956.23 130.553 957.07 130.553Z" fill="url(#paint65_linear_122_130)"/>
<path d="M958.27 153.186H961.21V154.243H953.59V153.186H956.99V141.978L953.75 143.912L953.19 143.015L957.19 140.542H958.27V153.186Z" fill="url(#paint66_linear_122_130)"/>
<path d="M957.07 163.135C958.497 163.135 959.577 163.74 960.31 164.95C961.057 166.147 961.43 167.888 961.43 170.175C961.43 172.462 961.057 174.211 960.31 175.421C959.577 176.63 958.497 177.235 957.07 177.235C955.657 177.235 954.577 176.63 953.83 175.421C953.084 174.211 952.71 172.462 952.71 170.175C952.71 167.902 953.084 166.16 953.83 164.95C954.577 163.74 955.657 163.135 957.07 163.135ZM954.13 170.175C954.13 171.797 954.277 173.067 954.57 173.985L959.01 165.15C958.543 164.525 957.897 164.212 957.07 164.212C956.15 164.212 955.43 164.704 954.91 165.688C954.39 166.659 954.13 168.154 954.13 170.175ZM957.07 176.139C958.003 176.139 958.73 175.653 959.25 174.683C959.77 173.699 960.03 172.196 960.03 170.175C960.03 168.46 959.863 167.131 959.53 166.187L955.09 175.101C955.57 175.793 956.23 176.139 957.07 176.139Z" fill="url(#paint67_linear_122_130)"/>
<path d="M957.07 185.928C958.497 185.928 959.577 186.533 960.31 187.743C961.057 188.94 961.43 190.681 961.43 192.968C961.43 195.255 961.057 197.003 960.31 198.213C959.577 199.423 958.497 200.028 957.07 200.028C955.657 200.028 954.577 199.423 953.83 198.213C953.084 197.003 952.71 195.255 952.71 192.968C952.71 190.695 953.084 188.953 953.83 187.743C954.577 186.533 955.657 185.928 957.07 185.928ZM954.13 192.968C954.13 194.59 954.277 195.86 954.57 196.777L959.01 187.942C958.543 187.317 957.897 187.005 957.07 187.005C956.15 187.005 955.43 187.497 954.91 188.481C954.39 189.451 954.13 190.947 954.13 192.968ZM957.07 198.931C958.003 198.931 958.73 198.446 959.25 197.475C959.77 196.492 960.03 194.989 960.03 192.968C960.03 191.253 959.863 189.923 959.53 188.979L955.09 197.894C955.57 198.586 956.23 198.931 957.07 198.931Z" fill="url(#paint68_linear_122_130)"/>
<path d="M958.27 221.565H961.21V222.622H953.59V221.565H956.99V210.356L953.75 212.291L953.19 211.393L957.19 208.92H958.27V221.565Z" fill="url(#paint69_linear_122_130)"/>
<path d="M957.07 231.514C958.497 231.514 959.577 232.119 960.31 233.329C961.057 234.525 961.43 236.267 961.43 238.554C961.43 240.841 961.057 242.589 960.31 243.799C959.577 245.009 958.497 245.614 957.07 245.614C955.657 245.614 954.577 245.009 953.83 243.799C953.084 242.589 952.71 240.841 952.71 238.554C952.71 236.28 953.084 234.538 953.83 233.329C954.577 232.119 955.657 231.514 957.07 231.514ZM954.13 238.554C954.13 240.176 954.277 241.446 954.57 242.363L959.01 233.528C958.543 232.903 957.897 232.591 957.07 232.591C956.15 232.591 955.43 233.083 954.91 234.066C954.39 235.037 954.13 236.533 954.13 238.554ZM957.07 244.517C958.003 244.517 958.73 244.032 959.25 243.061C959.77 242.077 960.03 240.575 960.03 238.554C960.03 236.839 959.863 235.509 959.53 234.565L955.09 243.48C955.57 244.171 956.23 244.517 957.07 244.517Z" fill="url(#paint70_linear_122_130)"/>
<path d="M958.27 267.15H961.21V268.207H953.59V267.15H956.99V255.942L953.75 257.876L953.19 256.979L957.19 254.506H958.27V267.15Z" fill="url(#paint71_linear_122_130)"/>
<path d="M958.27 289.943H961.21V291H953.59V289.943H956.99V278.735L953.75 280.669L953.19 279.772L957.19 277.299H958.27V289.943Z" fill="url(#paint72_linear_122_130)"/>
<path d="M901.36 26.3784C902.786 26.3784 903.866 26.9834 904.599 28.1933C905.346 29.3899 905.719 31.1317 905.719 33.4185C905.719 35.7054 905.346 37.4538 904.599 38.6637C903.866 39.8736 902.786 40.4786 901.36 40.4786C899.946 40.4786 898.867 39.8736 898.12 38.6637C897.373 37.4538 897 35.7054 897 33.4185C897 31.145 897.373 29.4032 898.12 28.1933C898.867 26.9834 899.946 26.3784 901.36 26.3784ZM898.42 33.4185C898.42 35.0406 898.567 36.3104 898.86 37.2278L903.3 28.3927C902.833 27.7678 902.186 27.4554 901.36 27.4554C900.44 27.4554 899.72 27.9473 899.2 28.9312C898.68 29.9018 898.42 31.3976 898.42 33.4185ZM901.36 39.3817C902.293 39.3817 903.02 38.8964 903.54 37.9258C904.06 36.9419 904.319 35.4395 904.319 33.4185C904.319 31.7034 904.153 30.3738 903.82 29.4298L899.38 38.3446C899.86 39.036 900.52 39.3817 901.36 39.3817Z" fill="url(#paint73_linear_122_130)"/>
<path d="M901.36 49.1712C902.786 49.1712 903.866 49.7762 904.599 50.9861C905.346 52.1827 905.719 53.9245 905.719 56.2113C905.719 58.4982 905.346 60.2466 904.599 61.4565C903.866 62.6664 902.786 63.2714 901.36 63.2714C899.946 63.2714 898.867 62.6664 898.12 61.4565C897.373 60.2466 897 58.4982 897 56.2113C897 53.9378 897.373 52.196 898.12 50.9861C898.867 49.7762 899.946 49.1712 901.36 49.1712ZM898.42 56.2113C898.42 57.8334 898.567 59.1032 898.86 60.0206L903.3 51.1855C902.833 50.5606 902.186 50.2482 901.36 50.2482C900.44 50.2482 899.72 50.7401 899.2 51.724C898.68 52.6946 898.42 54.1904 898.42 56.2113ZM901.36 62.1745C902.293 62.1745 903.02 61.6892 903.54 60.7186C904.06 59.7347 904.319 58.2323 904.319 56.2113C904.319 54.4962 904.153 53.1666 903.82 52.2226L899.38 61.1374C899.86 61.8288 900.52 62.1745 901.36 62.1745Z" fill="url(#paint74_linear_122_130)"/>
<path d="M902.56 84.8078H905.499V85.8648H897.88V84.8078H901.28V73.5994L898.04 75.5339L897.48 74.6365L901.48 72.1635H902.56V84.8078Z" fill="url(#paint75_linear_122_130)"/>
<path d="M901.36 94.7568C902.786 94.7568 903.866 95.3618 904.599 96.5717C905.346 97.7683 905.719 99.5101 905.719 101.797C905.719 104.084 905.346 105.832 904.599 107.042C903.866 108.252 902.786 108.857 901.36 108.857C899.946 108.857 898.867 108.252 898.12 107.042C897.373 105.832 897 104.084 897 101.797C897 99.5234 897.373 97.7816 898.12 96.5717C898.867 95.3618 899.946 94.7568 901.36 94.7568ZM898.42 101.797C898.42 103.419 898.567 104.689 898.86 105.606L903.3 96.7711C902.833 96.1462 902.186 95.8338 901.36 95.8338C900.44 95.8338 899.72 96.3257 899.2 97.3096C898.68 98.2802 898.42 99.776 898.42 101.797ZM901.36 107.76C902.293 107.76 903.02 107.275 903.54 106.304C904.06 105.32 904.319 103.818 904.319 101.797C904.319 100.082 904.153 98.7522 903.82 97.8082L899.38 106.723C899.86 107.414 900.52 107.76 901.36 107.76Z" fill="url(#paint76_linear_122_130)"/>
<path d="M902.56 130.393H905.499V131.45H897.88V130.393H901.28V119.185L898.04 121.12L897.48 120.222L901.48 117.749H902.56V130.393Z" fill="url(#paint77_linear_122_130)"/>
<path d="M902.56 153.186H905.499V154.243H897.88V153.186H901.28V141.978L898.04 143.912L897.48 143.015L901.48 140.542H902.56V153.186Z" fill="url(#paint78_linear_122_130)"/>
<path d="M939.7 -6.36345H942.64V-5.30644H935.02V-6.36345H938.42V-17.5718L935.18 -15.6373L934.62 -16.5347L938.62 -19.0078H939.7V-6.36345Z" fill="url(#paint79_linear_122_130)"/>
<path d="M938.5 3.58561C939.927 3.58561 941.006 4.19057 941.74 5.40048C942.486 6.59711 942.86 8.33886 942.86 10.6257C942.86 12.9126 942.486 14.661 941.74 15.8709C941.006 17.0808 939.927 17.6858 938.5 17.6858C937.087 17.6858 936.007 17.0808 935.26 15.8709C934.514 14.661 934.14 12.9126 934.14 10.6257C934.14 8.35215 934.514 6.6104 935.26 5.40048C936.007 4.19057 937.087 3.58561 938.5 3.58561ZM935.56 10.6257C935.56 12.2478 935.707 13.5176 936 14.435L940.44 5.59992C939.973 4.97502 939.327 4.66256 938.5 4.66256C937.58 4.66256 936.86 5.15451 936.34 6.1384C935.82 7.10899 935.56 8.60477 935.56 10.6257ZM938.5 16.5889C939.433 16.5889 940.16 16.1036 940.68 15.133C941.2 14.1491 941.46 12.6467 941.46 10.6257C941.46 8.91057 941.293 7.58099 940.96 6.63699L936.52 15.5518C937 16.2432 937.66 16.5889 938.5 16.5889Z" fill="url(#paint80_linear_122_130)"/>
<path d="M939.7 39.2221H942.64V40.2792H935.02V39.2221H938.42V28.0138L935.18 29.9483L934.62 29.0509L938.62 26.5778H939.7V39.2221Z" fill="url(#paint81_linear_122_130)"/>
<path d="M939.7 62.015H942.64V63.072H935.02V62.015H938.42V50.8066L935.18 52.7411L934.62 51.8437L938.62 49.3706H939.7V62.015Z" fill="url(#paint82_linear_122_130)"/>
<path d="M938.5 71.964C939.927 71.964 941.006 72.569 941.74 73.7789C942.486 74.9755 942.86 76.7173 942.86 79.0041C942.86 81.291 942.486 83.0394 941.74 84.2493C941.006 85.4593 939.927 86.0642 938.5 86.0642C937.087 86.0642 936.007 85.4593 935.26 84.2493C934.514 83.0394 934.14 81.291 934.14 79.0041C934.14 76.7306 934.514 74.9888 935.26 73.7789C936.007 72.569 937.087 71.964 938.5 71.964ZM935.56 79.0041C935.56 80.6262 935.707 81.896 936 82.8134L940.44 73.9783C939.973 73.3534 939.327 73.041 938.5 73.041C937.58 73.041 936.86 73.5329 936.34 74.5168C935.82 75.4874 935.56 76.9832 935.56 79.0041ZM938.5 84.9673C939.433 84.9673 940.16 84.482 940.68 83.5114C941.2 82.5275 941.46 81.0251 941.46 79.0041C941.46 77.289 941.293 75.9594 940.96 75.0154L936.52 83.9302C937 84.6216 937.66 84.9673 938.5 84.9673Z" fill="url(#paint83_linear_122_130)"/>
<path d="M939.7 107.601H942.64V108.658H935.02V107.601H938.42V96.3922L935.18 98.3267L934.62 97.4293L938.62 94.9562H939.7V107.601Z" fill="url(#paint84_linear_122_130)"/>
<path d="M939.7 130.393H942.64V131.45H935.02V130.393H938.42V119.185L935.18 121.12L934.62 120.222L938.62 117.749H939.7V130.393Z" fill="url(#paint85_linear_122_130)"/>
<path d="M938.5 140.342C939.927 140.342 941.006 140.947 941.74 142.157C942.486 143.354 942.86 145.096 942.86 147.383C942.86 149.669 942.486 151.418 941.74 152.628C941.006 153.838 939.927 154.443 938.5 154.443C937.087 154.443 936.007 153.838 935.26 152.628C934.514 151.418 934.14 149.669 934.14 147.383C934.14 145.109 934.514 143.367 935.26 142.157C936.007 140.947 937.087 140.342 938.5 140.342ZM935.56 147.383C935.56 149.005 935.707 150.274 936 151.192L940.44 142.357C939.973 141.732 939.327 141.419 938.5 141.419C937.58 141.419 936.86 141.911 936.34 142.895C935.82 143.866 935.56 145.362 935.56 147.383ZM938.5 153.346C939.433 153.346 940.16 152.86 940.68 151.89C941.2 150.906 941.46 149.404 941.46 147.383C941.46 145.667 941.293 144.338 940.96 143.394L936.52 152.309C937 153 937.66 153.346 938.5 153.346Z" fill="url(#paint86_linear_122_130)"/>
<path d="M939.7 175.979H942.64V177.036H935.02V175.979H938.42V164.771L935.18 166.705L934.62 165.808L938.62 163.335H939.7V175.979Z" fill="url(#paint87_linear_122_130)"/>
<path d="M938.5 185.928C939.927 185.928 941.006 186.533 941.74 187.743C942.486 188.94 942.86 190.681 942.86 192.968C942.86 195.255 942.486 197.003 941.74 198.213C941.006 199.423 939.927 200.028 938.5 200.028C937.087 200.028 936.007 199.423 935.26 198.213C934.514 197.003 934.14 195.255 934.14 192.968C934.14 190.695 934.514 188.953 935.26 187.743C936.007 186.533 937.087 185.928 938.5 185.928ZM935.56 192.968C935.56 194.59 935.707 195.86 936 196.777L940.44 187.942C939.973 187.317 939.327 187.005 938.5 187.005C937.58 187.005 936.86 187.497 936.34 188.481C935.82 189.451 935.56 190.947 935.56 192.968ZM938.5 198.931C939.433 198.931 940.16 198.446 940.68 197.475C941.2 196.492 941.46 194.989 941.46 192.968C941.46 191.253 941.293 189.923 940.96 188.979L936.52 197.894C937 198.586 937.66 198.931 938.5 198.931Z" fill="url(#paint88_linear_122_130)"/>
<path d="M975.64 -19.2072C977.067 -19.2072 978.147 -18.6022 978.88 -17.3923C979.627 -16.1957 980 -14.4539 980 -12.1671C980 -9.88019 979.627 -8.13179 978.88 -6.92188C978.147 -5.71196 977.067 -5.107 975.64 -5.107C974.227 -5.107 973.147 -5.71196 972.401 -6.92188C971.654 -8.13179 971.281 -9.88019 971.281 -12.1671C971.281 -14.4407 971.654 -16.1824 972.401 -17.3923C973.147 -18.6022 974.227 -19.2072 975.64 -19.2072ZM972.7 -12.1671C972.7 -10.545 972.847 -9.27523 973.14 -8.35782L977.58 -17.1929C977.114 -17.8178 976.467 -18.1302 975.64 -18.1302C974.72 -18.1302 974 -17.6383 973.48 -16.6544C972.96 -15.6838 972.7 -14.188 972.7 -12.1671ZM975.64 -6.2039C976.574 -6.2039 977.3 -6.6892 977.82 -7.65979C978.34 -8.64368 978.6 -10.1461 978.6 -12.1671C978.6 -13.8822 978.433 -15.2118 978.1 -16.1558L973.66 -7.24098C974.14 -6.5496 974.8 -6.2039 975.64 -6.2039Z" fill="url(#paint89_linear_122_130)"/>
<path d="M976.84 16.4293H979.78V17.4864H972.161V16.4293H975.56V5.22099L972.321 7.15553L971.761 6.25806L975.76 3.78504H976.84V16.4293Z" fill="url(#paint90_linear_122_130)"/>
<path d="M976.84 39.2221H979.78V40.2792H972.161V39.2221H975.56V28.0138L972.321 29.9483L971.761 29.0509L975.76 26.5778H976.84V39.2221Z" fill="url(#paint91_linear_122_130)"/>
<path d="M975.64 49.1712C977.067 49.1712 978.147 49.7762 978.88 50.9861C979.627 52.1827 980 53.9245 980 56.2113C980 58.4982 979.627 60.2466 978.88 61.4565C978.147 62.6664 977.067 63.2714 975.64 63.2714C974.227 63.2714 973.147 62.6664 972.401 61.4565C971.654 60.2466 971.281 58.4982 971.281 56.2113C971.281 53.9378 971.654 52.196 972.401 50.9861C973.147 49.7762 974.227 49.1712 975.64 49.1712ZM972.7 56.2113C972.7 57.8334 972.847 59.1032 973.14 60.0206L977.58 51.1855C977.114 50.5606 976.467 50.2482 975.64 50.2482C974.72 50.2482 974 50.7401 973.48 51.724C972.96 52.6946 972.7 54.1904 972.7 56.2113ZM975.64 62.1745C976.574 62.1745 977.3 61.6892 977.82 60.7186C978.34 59.7347 978.6 58.2323 978.6 56.2113C978.6 54.4962 978.433 53.1666 978.1 52.2226L973.66 61.1374C974.14 61.8288 974.8 62.1745 975.64 62.1745Z" fill="url(#paint92_linear_122_130)"/>
<path d="M975.64 71.964C977.067 71.964 978.147 72.569 978.88 73.7789C979.627 74.9755 980 76.7173 980 79.0041C980 81.291 979.627 83.0394 978.88 84.2493C978.147 85.4593 977.067 86.0642 975.64 86.0642C974.227 86.0642 973.147 85.4593 972.401 84.2493C971.654 83.0394 971.281 81.291 971.281 79.0041C971.281 76.7306 971.654 74.9888 972.401 73.7789C973.147 72.569 974.227 71.964 975.64 71.964ZM972.7 79.0041C972.7 80.6262 972.847 81.896 973.14 82.8134L977.58 73.9783C977.114 73.3534 976.467 73.041 975.64 73.041C974.72 73.041 974 73.5329 973.48 74.5168C972.96 75.4874 972.7 76.9832 972.7 79.0041ZM975.64 84.9673C976.574 84.9673 977.3 84.482 977.82 83.5114C978.34 82.5275 978.6 81.0251 978.6 79.0041C978.6 77.289 978.433 75.9594 978.1 75.0154L973.66 83.9302C974.14 84.6216 974.8 84.9673 975.64 84.9673Z" fill="url(#paint93_linear_122_130)"/>
</g>
</g>
<defs>
<filter id="filter0_f_122_130" x="-558.19" y="-728.19" width="2141.38" height="1500.38" filterUnits="userSpaceOnUse" color-interpolation-filters="sRGB">
<feFlood flood-opacity="0" result="BackgroundImageFix"/>
<feBlend mode="normal" in="SourceGraphic" in2="BackgroundImageFix" result="shape"/>
<feGaussianBlur stdDeviation="200.095" result="effect1_foregroundBlur_122_130"/>
</filter>
<linearGradient id="paint0_linear_122_130" x1="52.5" y1="258" x2="52.5" y2="569.381" gradientUnits="userSpaceOnUse">
<stop stop-color="#F7DD43"/>
<stop offset="1" stop-color="#F7DD43" stop-opacity="0"/>
</linearGradient>
<linearGradient id="paint1_linear_122_130" x1="52.5" y1="258" x2="52.5" y2="569.381" gradientUnits="userSpaceOnUse">
<stop stop-color="#F7DD43"/>
<stop offset="1" stop-color="#F7DD43" stop-opacity="0"/>
</linearGradient>
<linearGradient id="paint2_linear_122_130" x1="52.5" y1="258" x2="52.5" y2="569.381" gradientUnits="userSpaceOnUse">
<stop stop-color="#F7DD43"/>
<stop offset="1" stop-color="#F7DD43" stop-opacity="0"/>
</linearGradient>
<linearGradient id="paint3_linear_122_130" x1="52.5" y1="258" x2="52.5" y2="569.381" gradientUnits="userSpaceOnUse">
<stop stop-color="#F7DD43"/>
<stop offset="1" stop-color="#F7DD43" stop-opacity="0"/>
</linearGradient>
<linearGradient id="paint4_linear_122_130" x1="52.5" y1="258" x2="52.5" y2="569.381" gradientUnits="userSpaceOnUse">
<stop stop-color="#F7DD43"/>
<stop offset="1" stop-color="#F7DD43" stop-opacity="0"/>
</linearGradient>
<linearGradient id="paint5_linear_122_130" x1="52.5" y1="258" x2="52.5" y2="569.381" gradientUnits="userSpaceOnUse">
<stop stop-color="#F7DD43"/>
<stop offset="1" stop-color="#F7DD43" stop-opacity="0"/>
</linearGradient>
<linearGradient id="paint6_linear_122_130" x1="52.5" y1="258" x2="52.5" y2="569.381" gradientUnits="userSpaceOnUse">
<stop stop-color="#F7DD43"/>
<stop offset="1" stop-color="#F7DD43" stop-opacity="0"/>
</linearGradient>
<linearGradient id="paint7_linear_122_130" x1="52.5" y1="258" x2="52.5" y2="569.381" gradientUnits="userSpaceOnUse">
<stop stop-color="#F7DD43"/>
<stop offset="1" stop-color="#F7DD43" stop-opacity="0"/>
</linearGradient>
<linearGradient id="paint8_linear_122_130" x1="52.5" y1="258" x2="52.5" y2="569.381" gradientUnits="userSpaceOnUse">
<stop stop-color="#F7DD43"/>
<stop offset="1" stop-color="#F7DD43" stop-opacity="0"/>
</linearGradient>
<linearGradient id="paint9_linear_122_130" x1="52.5" y1="258" x2="52.5" y2="569.381" gradientUnits="userSpaceOnUse">
<stop stop-color="#F7DD43"/>
<stop offset="1" stop-color="#F7DD43" stop-opacity="0"/>
</linearGradient>
<linearGradient id="paint10_linear_122_130" x1="52.5" y1="258" x2="52.5" y2="569.381" gradientUnits="userSpaceOnUse">
<stop stop-color="#F7DD43"/>
<stop offset="1" stop-color="#F7DD43" stop-opacity="0"/>
</linearGradient>
<linearGradient id="paint11_linear_122_130" x1="52.5" y1="258" x2="52.5" y2="569.381" gradientUnits="userSpaceOnUse">
<stop stop-color="#F7DD43"/>
<stop offset="1" stop-color="#F7DD43" stop-opacity="0"/>
</linearGradient>
<linearGradient id="paint12_linear_122_130" x1="52.5" y1="258" x2="52.5" y2="569.381" gradientUnits="userSpaceOnUse">
<stop stop-color="#F7DD43"/>
<stop offset="1" stop-color="#F7DD43" stop-opacity="0"/>
</linearGradient>
<linearGradient id="paint13_linear_122_130" x1="52.5" y1="258" x2="52.5" y2="569.381" gradientUnits="userSpaceOnUse">
<stop stop-color="#F7DD43"/>
<stop offset="1" stop-color="#F7DD43" stop-opacity="0"/>
</linearGradient>
<linearGradient id="paint14_linear_122_130" x1="52.5" y1="258" x2="52.5" y2="569.381" gradientUnits="userSpaceOnUse">
<stop stop-color="#F7DD43"/>
<stop offset="1" stop-color="#F7DD43" stop-opacity="0"/>
</linearGradient>
<linearGradient id="paint15_linear_122_130" x1="52.5" y1="258" x2="52.5" y2="569.381" gradientUnits="userSpaceOnUse">
<stop stop-color="#F7DD43"/>
<stop offset="1" stop-color="#F7DD43" stop-opacity="0"/>
</linearGradient>
<linearGradient id="paint16_linear_122_130" x1="52.5" y1="258" x2="52.5" y2="569.381" gradientUnits="userSpaceOnUse">
<stop stop-color="#F7DD43"/>
<stop offset="1" stop-color="#F7DD43" stop-opacity="0"/>
</linearGradient>
<linearGradient id="paint17_linear_122_130" x1="52.5" y1="258" x2="52.5" y2="569.381" gradientUnits="userSpaceOnUse">
<stop stop-color="#F7DD43"/>
<stop offset="1" stop-color="#F7DD43" stop-opacity="0"/>
</linearGradient>
<linearGradient id="paint18_linear_122_130" x1="52.5" y1="258" x2="52.5" y2="569.381" gradientUnits="userSpaceOnUse">
<stop stop-color="#F7DD43"/>
<stop offset="1" stop-color="#F7DD43" stop-opacity="0"/>
</linearGradient>
<linearGradient id="paint19_linear_122_130" x1="52.5" y1="258" x2="52.5" y2="569.381" gradientUnits="userSpaceOnUse">
<stop stop-color="#F7DD43"/>
<stop offset="1" stop-color="#F7DD43" stop-opacity="0"/>
</linearGradient>
<linearGradient id="paint20_linear_122_130" x1="52.5" y1="258" x2="52.5" y2="569.381" gradientUnits="userSpaceOnUse">
<stop stop-color="#F7DD43"/>
<stop offset="1" stop-color="#F7DD43" stop-opacity="0"/>
</linearGradient>
<linearGradient id="paint21_linear_122_130" x1="52.5" y1="258" x2="52.5" y2="569.381" gradientUnits="userSpaceOnUse">
<stop stop-color="#F7DD43"/>
<stop offset="1" stop-color="#F7DD43" stop-opacity="0"/>
</linearGradient>
<linearGradient id="paint22_linear_122_130" x1="52.5" y1="258" x2="52.5" y2="569.381" gradientUnits="userSpaceOnUse">
<stop stop-color="#F7DD43"/>
<stop offset="1" stop-color="#F7DD43" stop-opacity="0"/>
</linearGradient>
<linearGradient id="paint23_linear_122_130" x1="52.5" y1="258" x2="52.5" y2="569.381" gradientUnits="userSpaceOnUse">
<stop stop-color="#F7DD43"/>
<stop offset="1" stop-color="#F7DD43" stop-opacity="0"/>
</linearGradient>
<linearGradient id="paint24_linear_122_130" x1="52.5" y1="258" x2="52.5" y2="569.381" gradientUnits="userSpaceOnUse">
<stop stop-color="#F7DD43"/>
<stop offset="1" stop-color="#F7DD43" stop-opacity="0"/>
</linearGradient>
<linearGradient id="paint25_linear_122_130" x1="52.5" y1="258" x2="52.5" y2="569.381" gradientUnits="userSpaceOnUse">
<stop stop-color="#F7DD43"/>
<stop offset="1" stop-color="#F7DD43" stop-opacity="0"/>
</linearGradient>
<linearGradient id="paint26_linear_122_130" x1="52.5" y1="258" x2="52.5" y2="569.381" gradientUnits="userSpaceOnUse">
<stop stop-color="#F7DD43"/>
<stop offset="1" stop-color="#F7DD43" stop-opacity="0"/>
</linearGradient>
<linearGradient id="paint27_linear_122_130" x1="52.5" y1="258" x2="52.5" y2="569.381" gradientUnits="userSpaceOnUse">
<stop stop-color="#F7DD43"/>
<stop offset="1" stop-color="#F7DD43" stop-opacity="0"/>
</linearGradient>
<linearGradient id="paint28_linear_122_130" x1="52.5" y1="258" x2="52.5" y2="569.381" gradientUnits="userSpaceOnUse">
<stop stop-color="#F7DD43"/>
<stop offset="1" stop-color="#F7DD43" stop-opacity="0"/>
</linearGradient>
<linearGradient id="paint29_linear_122_130" x1="52.5" y1="258" x2="52.5" y2="569.381" gradientUnits="userSpaceOnUse">
<stop stop-color="#F7DD43"/>
<stop offset="1" stop-color="#F7DD43" stop-opacity="0"/>
</linearGradient>
<linearGradient id="paint30_linear_122_130" x1="52.5" y1="258" x2="52.5" y2="569.381" gradientUnits="userSpaceOnUse">
<stop stop-color="#F7DD43"/>
<stop offset="1" stop-color="#F7DD43" stop-opacity="0"/>
</linearGradient>
<linearGradient id="paint31_linear_122_130" x1="52.5" y1="258" x2="52.5" y2="569.381" gradientUnits="userSpaceOnUse">
<stop stop-color="#F7DD43"/>
<stop offset="1" stop-color="#F7DD43" stop-opacity="0"/>
</linearGradient>
<linearGradient id="paint32_linear_122_130" x1="52.5" y1="258" x2="52.5" y2="569.381" gradientUnits="userSpaceOnUse">
<stop stop-color="#F7DD43"/>
<stop offset="1" stop-color="#F7DD43" stop-opacity="0"/>
</linearGradient>
<linearGradient id="paint33_linear_122_130" x1="52.5" y1="258" x2="52.5" y2="569.381" gradientUnits="userSpaceOnUse">
<stop stop-color="#F7DD43"/>
<stop offset="1" stop-color="#F7DD43" stop-opacity="0"/>
</linearGradient>
<linearGradient id="paint34_linear_122_130" x1="52.5" y1="258" x2="52.5" y2="569.381" gradientUnits="userSpaceOnUse">
<stop stop-color="#F7DD43"/>
<stop offset="1" stop-color="#F7DD43" stop-opacity="0"/>
</linearGradient>
<linearGradient id="paint35_linear_122_130" x1="52.5" y1="258" x2="52.5" y2="569.381" gradientUnits="userSpaceOnUse">
<stop stop-color="#F7DD43"/>
<stop offset="1" stop-color="#F7DD43" stop-opacity="0"/>
</linearGradient>
<linearGradient id="paint36_linear_122_130" x1="52.5" y1="258" x2="52.5" y2="569.381" gradientUnits="userSpaceOnUse">
<stop stop-color="#F7DD43"/>
<stop offset="1" stop-color="#F7DD43" stop-opacity="0"/>
</linearGradient>
<linearGradient id="paint37_linear_122_130" x1="52.5" y1="258" x2="52.5" y2="569.381" gradientUnits="userSpaceOnUse">
<stop stop-color="#F7DD43"/>
<stop offset="1" stop-color="#F7DD43" stop-opacity="0"/>
</linearGradient>
<linearGradient id="paint38_linear_122_130" x1="52.5" y1="258" x2="52.5" y2="569.381" gradientUnits="userSpaceOnUse">
<stop stop-color="#F7DD43"/>
<stop offset="1" stop-color="#F7DD43" stop-opacity="0"/>
</linearGradient>
<linearGradient id="paint39_linear_122_130" x1="52.5" y1="258" x2="52.5" y2="569.381" gradientUnits="userSpaceOnUse">
<stop stop-color="#F7DD43"/>
<stop offset="1" stop-color="#F7DD43" stop-opacity="0"/>
</linearGradient>
<linearGradient id="paint40_linear_122_130" x1="52.5" y1="258" x2="52.5" y2="569.381" gradientUnits="userSpaceOnUse">
<stop stop-color="#F7DD43"/>
<stop offset="1" stop-color="#F7DD43" stop-opacity="0"/>
</linearGradient>
<linearGradient id="paint41_linear_122_130" x1="52.5" y1="258" x2="52.5" y2="569.381" gradientUnits="userSpaceOnUse">
<stop stop-color="#F7DD43"/>
<stop offset="1" stop-color="#F7DD43" stop-opacity="0"/>
</linearGradient>
<linearGradient id="paint42_linear_122_130" x1="52.5" y1="258" x2="52.5" y2="569.381" gradientUnits="userSpaceOnUse">
<stop stop-color="#F7DD43"/>
<stop offset="1" stop-color="#F7DD43" stop-opacity="0"/>
</linearGradient>
<linearGradient id="paint43_linear_122_130" x1="52.5" y1="258" x2="52.5" y2="569.381" gradientUnits="userSpaceOnUse">
<stop stop-color="#F7DD43"/>
<stop offset="1" stop-color="#F7DD43" stop-opacity="0"/>
</linearGradient>
<linearGradient id="paint44_linear_122_130" x1="52.5" y1="258" x2="52.5" y2="569.381" gradientUnits="userSpaceOnUse">
<stop stop-color="#F7DD43"/>
<stop offset="1" stop-color="#F7DD43" stop-opacity="0"/>
</linearGradient>
<linearGradient id="paint45_linear_122_130" x1="52.5" y1="258" x2="52.5" y2="569.381" gradientUnits="userSpaceOnUse">
<stop stop-color="#F7DD43"/>
<stop offset="1" stop-color="#F7DD43" stop-opacity="0"/>
</linearGradient>
<linearGradient id="paint46_linear_122_130" x1="52.5" y1="258" x2="52.5" y2="569.381" gradientUnits="userSpaceOnUse">
<stop stop-color="#F7DD43"/>
<stop offset="1" stop-color="#F7DD43" stop-opacity="0"/>
</linearGradient>
<linearGradient id="paint47_linear_122_130" x1="938.5" y1="-42" x2="938.5" y2="256.818" gradientUnits="userSpaceOnUse">
<stop stop-color="#F7DD43"/>
<stop offset="1" stop-color="#F7DD43" stop-opacity="0"/>
</linearGradient>
<linearGradient id="paint48_linear_122_130" x1="938.5" y1="-42" x2="938.5" y2="256.818" gradientUnits="userSpaceOnUse">
<stop stop-color="#F7DD43"/>
<stop offset="1" stop-color="#F7DD43" stop-opacity="0"/>
</linearGradient>
<linearGradient id="paint49_linear_122_130" x1="938.5" y1="-42" x2="938.5" y2="256.818" gradientUnits="userSpaceOnUse">
<stop stop-color="#F7DD43"/>
<stop offset="1" stop-color="#F7DD43" stop-opacity="0"/>
</linearGradient>
<linearGradient id="paint50_linear_122_130" x1="938.5" y1="-42" x2="938.5" y2="256.818" gradientUnits="userSpaceOnUse">
<stop stop-color="#F7DD43"/>
<stop offset="1" stop-color="#F7DD43" stop-opacity="0"/>
</linearGradient>
<linearGradient id="paint51_linear_122_130" x1="938.5" y1="-42" x2="938.5" y2="256.818" gradientUnits="userSpaceOnUse">
<stop stop-color="#F7DD43"/>
<stop offset="1" stop-color="#F7DD43" stop-opacity="0"/>
</linearGradient>
<linearGradient id="paint52_linear_122_130" x1="938.5" y1="-42" x2="938.5" y2="256.818" gradientUnits="userSpaceOnUse">
<stop stop-color="#F7DD43"/>
<stop offset="1" stop-color="#F7DD43" stop-opacity="0"/>
</linearGradient>
<linearGradient id="paint53_linear_122_130" x1="938.5" y1="-42" x2="938.5" y2="256.818" gradientUnits="userSpaceOnUse">
<stop stop-color="#F7DD43"/>
<stop offset="1" stop-color="#F7DD43" stop-opacity="0"/>
</linearGradient>
<linearGradient id="paint54_linear_122_130" x1="938.5" y1="-42" x2="938.5" y2="256.818" gradientUnits="userSpaceOnUse">
<stop stop-color="#F7DD43"/>
<stop offset="1" stop-color="#F7DD43" stop-opacity="0"/>
</linearGradient>
<linearGradient id="paint55_linear_122_130" x1="938.5" y1="-42" x2="938.5" y2="256.818" gradientUnits="userSpaceOnUse">
<stop stop-color="#F7DD43"/>
<stop offset="1" stop-color="#F7DD43" stop-opacity="0"/>
</linearGradient>
<linearGradient id="paint56_linear_122_130" x1="938.5" y1="-42" x2="938.5" y2="256.818" gradientUnits="userSpaceOnUse">
<stop stop-color="#F7DD43"/>
<stop offset="1" stop-color="#F7DD43" stop-opacity="0"/>
</linearGradient>
<linearGradient id="paint57_linear_122_130" x1="938.5" y1="-42" x2="938.5" y2="256.818" gradientUnits="userSpaceOnUse">
<stop stop-color="#F7DD43"/>
<stop offset="1" stop-color="#F7DD43" stop-opacity="0"/>
</linearGradient>
<linearGradient id="paint58_linear_122_130" x1="938.5" y1="-42" x2="938.5" y2="256.818" gradientUnits="userSpaceOnUse">
<stop stop-color="#F7DD43"/>
<stop offset="1" stop-color="#F7DD43" stop-opacity="0"/>
</linearGradient>
<linearGradient id="paint59_linear_122_130" x1="938.5" y1="-42" x2="938.5" y2="256.818" gradientUnits="userSpaceOnUse">
<stop stop-color="#F7DD43"/>
<stop offset="1" stop-color="#F7DD43" stop-opacity="0"/>
</linearGradient>
<linearGradient id="paint60_linear_122_130" x1="938.5" y1="-42" x2="938.5" y2="256.818" gradientUnits="userSpaceOnUse">
<stop stop-color="#F7DD43"/>
<stop offset="1" stop-color="#F7DD43" stop-opacity="0"/>
</linearGradient>
<linearGradient id="paint61_linear_122_130" x1="938.5" y1="-42" x2="938.5" y2="256.818" gradientUnits="userSpaceOnUse">
<stop stop-color="#F7DD43"/>
<stop offset="1" stop-color="#F7DD43" stop-opacity="0"/>
</linearGradient>
<linearGradient id="paint62_linear_122_130" x1="938.5" y1="-42" x2="938.5" y2="256.818" gradientUnits="userSpaceOnUse">
<stop stop-color="#F7DD43"/>
<stop offset="1" stop-color="#F7DD43" stop-opacity="0"/>
</linearGradient>
<linearGradient id="paint63_linear_122_130" x1="938.5" y1="-42" x2="938.5" y2="256.818" gradientUnits="userSpaceOnUse">
<stop stop-color="#F7DD43"/>
<stop offset="1" stop-color="#F7DD43" stop-opacity="0"/>
</linearGradient>
<linearGradient id="paint64_linear_122_130" x1="938.5" y1="-42" x2="938.5" y2="256.818" gradientUnits="userSpaceOnUse">
<stop stop-color="#F7DD43"/>
<stop offset="1" stop-color="#F7DD43" stop-opacity="0"/>
</linearGradient>
<linearGradient id="paint65_linear_122_130" x1="938.5" y1="-42" x2="938.5" y2="256.818" gradientUnits="userSpaceOnUse">
<stop stop-color="#F7DD43"/>
<stop offset="1" stop-color="#F7DD43" stop-opacity="0"/>
</linearGradient>
<linearGradient id="paint66_linear_122_130" x1="938.5" y1="-42" x2="938.5" y2="256.818" gradientUnits="userSpaceOnUse">
<stop stop-color="#F7DD43"/>
<stop offset="1" stop-color="#F7DD43" stop-opacity="0"/>
</linearGradient>
<linearGradient id="paint67_linear_122_130" x1="938.5" y1="-42" x2="938.5" y2="256.818" gradientUnits="userSpaceOnUse">
<stop stop-color="#F7DD43"/>
<stop offset="1" stop-color="#F7DD43" stop-opacity="0"/>
</linearGradient>
<linearGradient id="paint68_linear_122_130" x1="938.5" y1="-42" x2="938.5" y2="256.818" gradientUnits="userSpaceOnUse">
<stop stop-color="#F7DD43"/>
<stop offset="1" stop-color="#F7DD43" stop-opacity="0"/>
</linearGradient>
<linearGradient id="paint69_linear_122_130" x1="938.5" y1="-42" x2="938.5" y2="256.818" gradientUnits="userSpaceOnUse">
<stop stop-color="#F7DD43"/>
<stop offset="1" stop-color="#F7DD43" stop-opacity="0"/>
</linearGradient>
<linearGradient id="paint70_linear_122_130" x1="938.5" y1="-42" x2="938.5" y2="256.818" gradientUnits="userSpaceOnUse">
<stop stop-color="#F7DD43"/>
<stop offset="1" stop-color="#F7DD43" stop-opacity="0"/>
</linearGradient>
<linearGradient id="paint71_linear_122_130" x1="938.5" y1="-42" x2="938.5" y2="256.818" gradientUnits="userSpaceOnUse">
<stop stop-color="#F7DD43"/>
<stop offset="1" stop-color="#F7DD43" stop-opacity="0"/>
</linearGradient>
<linearGradient id="paint72_linear_122_130" x1="938.5" y1="-42" x2="938.5" y2="256.818" gradientUnits="userSpaceOnUse">
<stop stop-color="#F7DD43"/>
<stop offset="1" stop-color="#F7DD43" stop-opacity="0"/>
</linearGradient>
<linearGradient id="paint73_linear_122_130" x1="938.5" y1="-42" x2="938.5" y2="256.818" gradientUnits="userSpaceOnUse">
<stop stop-color="#F7DD43"/>
<stop offset="1" stop-color="#F7DD43" stop-opacity="0"/>
</linearGradient>
<linearGradient id="paint74_linear_122_130" x1="938.5" y1="-42" x2="938.5" y2="256.818" gradientUnits="userSpaceOnUse">
<stop stop-color="#F7DD43"/>
<stop offset="1" stop-color="#F7DD43" stop-opacity="0"/>
</linearGradient>
<linearGradient id="paint75_linear_122_130" x1="938.5" y1="-42" x2="938.5" y2="256.818" gradientUnits="userSpaceOnUse">
<stop stop-color="#F7DD43"/>
<stop offset="1" stop-color="#F7DD43" stop-opacity="0"/>
</linearGradient>
<linearGradient id="paint76_linear_122_130" x1="938.5" y1="-42" x2="938.5" y2="256.818" gradientUnits="userSpaceOnUse">
<stop stop-color="#F7DD43"/>
<stop offset="1" stop-color="#F7DD43" stop-opacity="0"/>
</linearGradient>
<linearGradient id="paint77_linear_122_130" x1="938.5" y1="-42" x2="938.5" y2="256.818" gradientUnits="userSpaceOnUse">
<stop stop-color="#F7DD43"/>
<stop offset="1" stop-color="#F7DD43" stop-opacity="0"/>
</linearGradient>
<linearGradient id="paint78_linear_122_130" x1="938.5" y1="-42" x2="938.5" y2="256.818" gradientUnits="userSpaceOnUse">
<stop stop-color="#F7DD43"/>
<stop offset="1" stop-color="#F7DD43" stop-opacity="0"/>
</linearGradient>
<linearGradient id="paint79_linear_122_130" x1="938.5" y1="-42" x2="938.5" y2="256.818" gradientUnits="userSpaceOnUse">
<stop stop-color="#F7DD43"/>
<stop offset="1" stop-color="#F7DD43" stop-opacity="0"/>
</linearGradient>
<linearGradient id="paint80_linear_122_130" x1="938.5" y1="-42" x2="938.5" y2="256.818" gradientUnits="userSpaceOnUse">
<stop stop-color="#F7DD43"/>
<stop offset="1" stop-color="#F7DD43" stop-opacity="0"/>
</linearGradient>
<linearGradient id="paint81_linear_122_130" x1="938.5" y1="-42" x2="938.5" y2="256.818" gradientUnits="userSpaceOnUse">
<stop stop-color="#F7DD43"/>
<stop offset="1" stop-color="#F7DD43" stop-opacity="0"/>
</linearGradient>
<linearGradient id="paint82_linear_122_130" x1="938.5" y1="-42" x2="938.5" y2="256.818" gradientUnits="userSpaceOnUse">
<stop stop-color="#F7DD43"/>
<stop offset="1" stop-color="#F7DD43" stop-opacity="0"/>
</linearGradient>
<linearGradient id="paint83_linear_122_130" x1="938.5" y1="-42" x2="938.5" y2="256.818" gradientUnits="userSpaceOnUse">
<stop stop-color="#F7DD43"/>
<stop offset="1" stop-color="#F7DD43" stop-opacity="0"/>
</linearGradient>
<linearGradient id="paint84_linear_122_130" x1="938.5" y1="-42" x2="938.5" y2="256.818" gradientUnits="userSpaceOnUse">
<stop stop-color="#F7DD43"/>
<stop offset="1" stop-color="#F7DD43" stop-opacity="0"/>
</linearGradient>
<linearGradient id="paint85_linear_122_130" x1="938.5" y1="-42" x2="938.5" y2="256.818" gradientUnits="userSpaceOnUse">
<stop stop-color="#F7DD43"/>
<stop offset="1" stop-color="#F7DD43" stop-opacity="0"/>
</linearGradient>
<linearGradient id="paint86_linear_122_130" x1="938.5" y1="-42" x2="938.5" y2="256.818" gradientUnits="userSpaceOnUse">
<stop stop-color="#F7DD43"/>
<stop offset="1" stop-color="#F7DD43" stop-opacity="0"/>
</linearGradient>
<linearGradient id="paint87_linear_122_130" x1="938.5" y1="-42" x2="938.5" y2="256.818" gradientUnits="userSpaceOnUse">
<stop stop-color="#F7DD43"/>
<stop offset="1" stop-color="#F7DD43" stop-opacity="0"/>
</linearGradient>
<linearGradient id="paint88_linear_122_130" x1="938.5" y1="-42" x2="938.5" y2="256.818" gradientUnits="userSpaceOnUse">
<stop stop-color="#F7DD43"/>
<stop offset="1" stop-color="#F7DD43" stop-opacity="0"/>
</linearGradient>
<linearGradient id="paint89_linear_122_130" x1="938.5" y1="-42" x2="938.5" y2="256.818" gradientUnits="userSpaceOnUse">
<stop stop-color="#F7DD43"/>
<stop offset="1" stop-color="#F7DD43" stop-opacity="0"/>
</linearGradient>
<linearGradient id="paint90_linear_122_130" x1="938.5" y1="-42" x2="938.5" y2="256.818" gradientUnits="userSpaceOnUse">
<stop stop-color="#F7DD43"/>
<stop offset="1" stop-color="#F7DD43" stop-opacity="0"/>
</linearGradient>
<linearGradient id="paint91_linear_122_130" x1="938.5" y1="-42" x2="938.5" y2="256.818" gradientUnits="userSpaceOnUse">
<stop stop-color="#F7DD43"/>
<stop offset="1" stop-color="#F7DD43" stop-opacity="0"/>
</linearGradient>
<linearGradient id="paint92_linear_122_130" x1="938.5" y1="-42" x2="938.5" y2="256.818" gradientUnits="userSpaceOnUse">
<stop stop-color="#F7DD43"/>
<stop offset="1" stop-color="#F7DD43" stop-opacity="0"/>
</linearGradient>
<linearGradient id="paint93_linear_122_130" x1="938.5" y1="-42" x2="938.5" y2="256.818" gradientUnits="userSpaceOnUse">
<stop stop-color="#F7DD43"/>
<stop offset="1" stop-color="#F7DD43" stop-opacity="0"/>
</linearGradient>
<clipPath id="clip0_122_130">
<rect width="1024" height="753" fill="white"/>
</clipPath>
</defs>
</svg>
